<svg width="400" height="400" viewBox="0 0 400 400" fill="none" xmlns="http://www.w3.org/2000/svg">
<rect width="399" height="400" fill="#7DBFC2"/>
<path d="M27.4685 276.664H52.3005C59.4685 276.664 65.2285 270.2 65.2285 262.264V236.6C65.2285 228.664 59.4685 222.2 52.3005 222.2H27.4685V276.664ZM37.4525 266.616V232.184H49.8685C52.8765 232.184 55.3085 234.936 55.3085 238.2V260.6C55.3085 263.928 52.8765 266.616 49.8685 266.616H37.4525ZM76.871 276.664H86.983V222.2H76.871V276.664ZM113.423 242.872C110.287 242.872 108.367 240.76 108.367 238.072C108.367 233.528 111.695 232.824 115.855 232.824H134.223V222.2H111.695C103.119 222.2 97.4875 229.496 97.4875 237.56C97.4875 248.888 104.591 253.496 115.471 253.496H121.935C125.967 253.496 129.104 255.928 129.104 260.088C129.104 264.504 125.519 266.552 121.167 266.552H99.2155V276.664H124.047C132.944 276.664 139.023 269.496 139.023 260.088C139.023 250.104 132.304 242.872 123.215 242.872H113.423ZM171.568 222.2H148.208V276.664H157.808V254.136H171.568C179.824 254.136 186.352 247.48 186.352 239.352V236.984C186.352 228.856 179.824 222.2 171.568 222.2ZM169.968 231.736C174.448 231.736 176.56 234.36 176.56 238.2C176.56 242.168 174.512 244.6 169.968 244.6H157.808V231.736H169.968ZM222.881 276.664H232.481L219.041 222.2H208.609L194.657 276.664H204.321L206.305 268.344H220.961L222.881 276.664ZM213.537 238.008H214.049L219.105 260.28H208.225L213.537 238.008ZM254.432 276.664H264.16V232.248H278.24V222.2H240.48V232.248H254.432V276.664ZM309.526 267.192H302.806C299.094 267.192 296.726 264.056 296.726 260.28V238.584C296.726 234.808 299.094 231.672 302.806 231.672H309.526C312.662 231.672 314.006 233.848 314.582 236.664H324.63C323.862 228.536 317.91 222.2 309.59 222.2H302.742C294.038 222.2 286.934 229.304 286.934 238.072V260.856C286.934 269.56 294.038 276.664 302.742 276.664H309.59C317.846 276.664 323.862 270.392 324.63 262.392H314.518C313.878 265.144 312.598 267.192 309.526 267.192ZM372.789 222.2H362.677V244.856H345.205V222.2H335.029V276.664H345.205V253.944H362.677V276.664H372.789V222.2Z" fill="#4D534B"/>
<path d="M99.7433 174.944H128.031V165.856H99.4873V152.416H127.967V143.2H90.5273V197.664H99.7433V174.944ZM166.075 197.664H177.659L159.163 175.136H161.915C170.171 175.136 176.699 168.48 176.699 160.352V157.984C176.699 149.856 170.171 143.2 161.915 143.2H138.555V197.664H148.667V175.648L166.075 197.664ZM160.315 152.736C164.795 152.736 166.907 155.36 166.907 159.2C166.907 163.168 164.859 165.6 160.315 165.6H148.667V152.736H160.315ZM202.811 143.2C194.107 143.2 187.003 150.304 187.003 159.072V181.856C187.003 190.56 194.107 197.664 202.811 197.664H209.019C217.787 197.664 224.827 190.56 224.827 181.856V159.072C224.827 150.304 217.787 143.2 209.019 143.2H202.811ZM215.035 181.28C215.035 185.056 212.667 188.192 208.955 188.192H202.875C199.163 188.192 196.795 185.056 196.795 181.28V159.584C196.795 155.808 199.163 152.672 202.875 152.672H208.955C212.667 152.672 215.035 155.808 215.035 159.584V181.28ZM264.584 197.664H274.12V143.2H264.584V179.168L246.088 143.2H236.36V197.664H246.088V162.016L264.584 197.664ZM296.651 197.664H306.379V153.248H320.459V143.2H282.699V153.248H296.651V197.664Z" fill="#4D534B"/>
<path d="M184.76 129.624H188.408V112.968H193.688V109.2H179.528V112.968H184.76V129.624ZM211.18 109.2H207.388V117.696H200.836V109.2H197.02V129.624H200.836V121.104H207.388V129.624H211.18V109.2ZM219.46 121.104H229.636V117.696H219.46V112.656H229.636V109.2H215.596V129.624H229.636V126.168H219.46V121.104Z" fill="#4D534B"/>
</svg>
